<svg xmlns="http://www.w3.org/2000/svg" viewBox="0 0 512 512">
  <defs>
    <linearGradient id="badge-gold" x1="0%" y1="0%" x2="100%" y2="100%">
      <stop offset="0%" stop-color="#fbd361" />
      <stop offset="45%" stop-color="#f3b51b" />
      <stop offset="100%" stop-color="#d88c00" />
    </linearGradient>
  </defs>
  <circle cx="256" cy="256" r="248" fill="url(#badge-gold)" />
  <path fill="#111" d="M367.7 98.1c-10.2 22.5-28.8 41.8-53.3 44.3-20.4 2-46.8-7-58-37.4l-3.3-9.2-3.3 9.2c-11.2 30.4-37.7 39.4-58 37.4-24.5-2.5-43.1-21.8-53.3-44.3l-6.8 58.7c24.5 27.8 54.9 45.8 79.4 53.3 21.5 6.6 44.5 8.1 67.3 8.1s45.8-1.5 67.3-8.1c24.5-7.5 54.9-25.5 79.4-53.3l-6.8-58.7z" />
  <path fill="#fff" d="M171.9 197.6c-10.1 16.8-15.4 36-15.4 56 0 63.8 51.7 115.5 115.5 115.5 38.1 0 72-18.9 92.9-47.8 7.6 3.6 19.5 3.3 28.5-.6 16.7-7.3 27.9-26.2 20.9-44.8-5.9-15.6-22.1-22.8-34.2-23.1-1.2-33.3-15.4-60.1-39.3-80.2-22.5-18.8-52.4-29.7-84.6-29.7-34.8 0-67 12.9-84.3 54.7z" />
  <path fill="#111" d="M274.4 180.4c-36.5 0-68.7 27.3-75.2 63.2-1.7 9.6 4.9 18.7 14.4 20.4s18.7-4.9 20.4-14.4c3.7-20.8 22.5-36.2 44.4-36.2 24.8 0 44.9 20.1 44.9 44.9 0 24.8-20.1 44.9-44.9 44.9-10 0-19.5-3.2-27.4-9.2-7.7-5.8-18.7-4.3-24.6 3.5-5.8 7.7-4.3 18.7 3.5 24.6 13.7 10.4 30.1 16 48.6 16 45.8 0 82.9-37.1 82.9-82.9 0-45.8-37.1-82.9-82.9-82.9z" />
  <path fill="#fff" d="M351.8 287.1c-5.7 0-10.4 4.6-10.4 10.3 0 10 7.5 19.1 17 20.5 5.8 0.9 11.8-0.4 16.7-3.7 5.9-3.9 9.4-10.6 9.4-17.7 0-5.7-4.6-10.3-10.3-10.3-8.4 0-15.2-6.8-15.2-15.2 0-5.7-4.6-10.3-10.3-10.3s-10.3 4.6-10.3 10.3c0 19.9 16.2 36.1 36.1 36.1 5.7 0 10.3-4.6 10.3-10.3s-4.6-10.3-10.3-10.3z" />
  <path fill="#111" d="M184.8 275.9c-5.7 0-10.3 4.6-10.3 10.3 0 22.3 18.1 40.4 40.4 40.4 5.7 0 10.3-4.6 10.3-10.3s-4.6-10.3-10.3-10.3c-10.9 0-19.9-8.9-19.9-19.9-.1-5.8-4.7-10.2-10.2-10.2z" />
  <path fill="#f8d48b" d="M321.3 214.6c-20.6-4.5-38.9-16.8-52.2-34.5-4.9-6.5-12.7-10.3-20.8-10.3h-27.8c-22.5 0-42.4 12.3-49.4 36.2-1.1 3.6-1.6 7.3-1.6 11.1v9.2c0 9 7.3 16.2 16.2 16.2 5.4 0 10.4-2.7 13.4-7.2l9.7-14.7 10 9.5c14.3 13.6 32.9 22.9 53.1 26.6l3.9.7c14.1 2.5 28.3 2 41.9-1.4 11.4-2.9 20.9-10.8 26-21.5l3.1-6.6c5.4-11.4-4.5-23.8-16.9-22.3l-9.7 1.2c-3.5.4-7 .2-10.3-.5z" />
  <path fill="#f6a72d" d="M350.4 183.8c-9.6 0-18.7-3.8-25.5-10.6-6.7-6.8-10.5-15.8-10.4-25.3.1-8 6.6-14.5 14.6-14.5 7 0 12.9 4.9 14.3 11.7 1.1 5.4 6.2 9.1 11.7 8.4 6.6-.8 13.3-.1 19.6 2 8 2.6 13.1 10.6 11.7 18.9-2.6 15.7-16.1 27.4-31 27.4z" />
  <path fill="#fdf6dd" d="M336.9 144c-5.3 0-9.6 4.3-9.6 9.6s4.3 9.6 9.6 9.6c5.3 0 9.6-4.3 9.6-9.6s-4.3-9.6-9.6-9.6z" />
  <path fill="#fff" d="M280.4 104.3c0 20.2-16.4 36.6-36.6 36.6s-36.6-16.4-36.6-36.6 16.4-36.6 36.6-36.6 36.6 16.4 36.6 36.6z" opacity=".1" />
  <path fill="#111" d="M164.2 137.8c-10.7-10.5-17.4-24.8-18.9-39.8-1.3-13.4 8.5-25.1 21.9-26.4 9.5-.9 18.6 3.7 23.7 11.6l15 23.2c5.7 8.9 3.1 20.7-5.7 26.4-11.2 7.4-24.9 12.1-35.9 5z" />
  <path fill="#111" d="M347.8 137.8c10.7-10.5 17.4-24.8 18.9-39.8 1.3-13.4-8.5-25.1-21.9-26.4-9.5-.9-18.6 3.7-23.7 11.6l-15 23.2c-5.7 8.9-3.1 20.7 5.7 26.4 11.3 7.4 25 12.1 36 5z" />
  <path fill="#111" d="M225.7 206.3c-4.8-3-11.1-1.5-14.1 3.3-3 4.8-1.5 11.1 3.3 14.1 11 6.9 24.3 10.5 41.4 10.5 6.4 0 11.6-5.2 11.6-11.6 0-6.4-5.2-11.6-11.6-11.6-13.1 0-22.7-2.5-30.6-7.1z" />
  <path fill="#f8d48b" d="M373.6 337.6c-18.3 23.1-46.4 37.9-77.2 37.9-32.1 0-61-15.6-79-39.5-22.9 10.5-39 33.3-39 60 0 8.3 6.7 15.1 15.1 15.1h204.2c8.3 0 15.1-6.7 15.1-15.1 0-23.1-13.2-43.1-32.2-53.4z" />
  <path fill="#111" d="M200.1 376.6c-5.7 0-10.3 4.6-10.3 10.3 0 5.7 4.6 10.3 10.3 10.3h117.9c5.7 0 10.3-4.6 10.3-10.3 0-5.7-4.6-10.3-10.3-10.3z" />
  <path fill="#f6a72d" d="M387 190.3c-6 0-11.7-2.5-15.8-6.9-2.9-3.1-2.7-8 .4-10.9 3.1-2.9 8-2.7 10.9.4 1.2 1.3 2.7 2 4.4 2 3.8 0 6.9-3.1 6.9-6.9 0-4.2 3.4-7.7 7.7-7.7s7.7 3.4 7.7 7.7c0 12.2-9.9 22.1-22.2 22.1z" />
  <path fill="#f6a72d" d="M374.2 159.4c-3.9 0-7-3.1-7-7s3.1-7 7-7 7 3.1 7 7-3.2 7-7 7z" />
  <path fill="#f3b51b" d="M379.9 63.8l10.7 20.4 22.5 3.3-16.3 15.9 3.8 22.3-20.1-10.6-20.1 10.6 3.8-22.3-16.3-15.9 22.5-3.3z" />
</svg>
